<svg width="25" height="25" viewBox="0 0 25 25" fill="none" xmlns="http://www.w3.org/2000/svg">
<g id="4 - Filled / arrow-right">
<path id="arrow-right-Filled" d="M22.2132 13.1255L15.2724 20.184C15.079 20.3807 14.8239 20.4808 14.5679 20.4829C14.3119 20.4851 14.0551 20.3893 13.8585 20.1959C13.4642 19.8082 13.4589 19.1762 13.8466 18.7819L19.0948 13.4447L3.50934 13.5755C2.95635 13.5802 2.50561 13.137 2.50095 12.584C2.4963 12.031 2.93952 11.5803 3.4925 11.5756L19.0779 11.4447L13.7406 6.1964C13.3463 5.8087 13.341 5.17666 13.7287 4.78239C14.1164 4.38812 14.7483 4.38281 15.1426 4.77051L22.2013 11.7115C22.5955 12.0992 22.6009 12.7312 22.2132 13.1255Z" fill="white"/>
</g>
</svg>
