<svg width="81" height="81" viewBox="0 0 81 81" fill="none" xmlns="http://www.w3.org/2000/svg">
<g clip-path="url(#clip0_1028_547)">
<path fill-rule="evenodd" clip-rule="evenodd" d="M54.7732 41.2345C55.006 41.4667 55.1907 41.7426 55.3167 42.0463C55.4428 42.35 55.5076 42.6756 55.5076 43.0045C55.5076 43.3333 55.4428 43.6589 55.3167 43.9626C55.1907 44.2664 55.006 44.5422 54.7732 44.7745L39.7732 59.7745C39.5409 60.0073 39.2651 60.192 38.9613 60.318C38.6576 60.4441 38.332 60.5089 38.0032 60.5089C37.6743 60.5089 37.3487 60.4441 37.045 60.318C36.7413 60.192 36.4654 60.0073 36.2332 59.7745L28.7332 52.2745C28.5007 52.042 28.3163 51.7661 28.1905 51.4624C28.0647 51.1587 28 50.8332 28 50.5045C28 50.1757 28.0647 49.8502 28.1905 49.5465C28.3163 49.2429 28.5007 48.9669 28.7332 48.7345C29.2026 48.265 29.8393 48.0013 30.5032 48.0013C30.8319 48.0013 31.1574 48.0661 31.4611 48.1919C31.7648 48.3176 32.0407 48.502 32.2732 48.7345L38.0032 54.4695L51.2332 41.2345C51.4654 41.0017 51.7413 40.8169 52.045 40.6909C52.3487 40.5649 52.6743 40.5 53.0032 40.5C53.332 40.5 53.6576 40.5649 53.9613 40.6909C54.2651 40.8169 54.5409 41.0017 54.7732 41.2345Z" fill="black"/>
<path fill-rule="evenodd" clip-rule="evenodd" d="M54.7732 41.2345C55.006 41.4667 55.1907 41.7426 55.3167 42.0463C55.4428 42.35 55.5076 42.6756 55.5076 43.0045C55.5076 43.3333 55.4428 43.6589 55.3167 43.9626C55.1907 44.2664 55.006 44.5422 54.7732 44.7745L39.7732 59.7745C39.5409 60.0073 39.2651 60.192 38.9613 60.318C38.6576 60.4441 38.332 60.5089 38.0032 60.5089C37.6743 60.5089 37.3487 60.4441 37.045 60.318C36.7413 60.192 36.4654 60.0073 36.2332 59.7745L28.7332 52.2745C28.5007 52.042 28.3163 51.7661 28.1905 51.4624C28.0647 51.1587 28 50.8332 28 50.5045C28 50.1757 28.0647 49.8502 28.1905 49.5465C28.3163 49.2429 28.5007 48.9669 28.7332 48.7345C29.2026 48.265 29.8393 48.0013 30.5032 48.0013C30.8319 48.0013 31.1574 48.0661 31.4611 48.1919C31.7648 48.3176 32.0407 48.502 32.2732 48.7345L38.0032 54.4695L51.2332 41.2345C51.4654 41.0017 51.7413 40.8169 52.045 40.6909C52.3487 40.5649 52.6743 40.5 53.0032 40.5C53.332 40.5 53.6576 40.5649 53.9613 40.6909C54.2651 40.8169 54.5409 41.0017 54.7732 41.2345Z" fill="url(#paint0_linear_1028_547)"/>
<path d="M40.5 5.5C43.8152 5.5 46.9946 6.81696 49.3388 9.16117C51.683 11.5054 53 14.6848 53 18V20.5H28V18C28 14.6848 29.317 11.5054 31.6612 9.16117C34.0054 6.81696 37.1848 5.5 40.5 5.5ZM58 20.5V18C58 13.3587 56.1563 8.90752 52.8744 5.62563C49.5925 2.34374 45.1413 0.5 40.5 0.5C35.8587 0.5 31.4075 2.34374 28.1256 5.62563C24.8437 8.90752 23 13.3587 23 18V20.5H5.5V70.5C5.5 73.1522 6.55357 75.6957 8.42893 77.5711C10.3043 79.4464 12.8478 80.5 15.5 80.5H65.5C68.1522 80.5 70.6957 79.4464 72.5711 77.5711C74.4464 75.6957 75.5 73.1522 75.5 70.5V20.5H58ZM10.5 25.5H70.5V70.5C70.5 71.8261 69.9732 73.0979 69.0355 74.0355C68.0979 74.9732 66.8261 75.5 65.5 75.5H15.5C14.1739 75.5 12.9021 74.9732 11.9645 74.0355C11.0268 73.0979 10.5 71.8261 10.5 70.5V25.5Z" fill="black"/>
<path d="M40.5 5.5C43.8152 5.5 46.9946 6.81696 49.3388 9.16117C51.683 11.5054 53 14.6848 53 18V20.5H28V18C28 14.6848 29.317 11.5054 31.6612 9.16117C34.0054 6.81696 37.1848 5.5 40.5 5.5ZM58 20.5V18C58 13.3587 56.1563 8.90752 52.8744 5.62563C49.5925 2.34374 45.1413 0.5 40.5 0.5C35.8587 0.5 31.4075 2.34374 28.1256 5.62563C24.8437 8.90752 23 13.3587 23 18V20.5H5.5V70.5C5.5 73.1522 6.55357 75.6957 8.42893 77.5711C10.3043 79.4464 12.8478 80.5 15.5 80.5H65.5C68.1522 80.5 70.6957 79.4464 72.5711 77.5711C74.4464 75.6957 75.5 73.1522 75.5 70.5V20.5H58ZM10.5 25.5H70.5V70.5C70.5 71.8261 69.9732 73.0979 69.0355 74.0355C68.0979 74.9732 66.8261 75.5 65.5 75.5H15.5C14.1739 75.5 12.9021 74.9732 11.9645 74.0355C11.0268 73.0979 10.5 71.8261 10.5 70.5V25.5Z" fill="url(#paint1_linear_1028_547)"/>
</g>
<defs>
<linearGradient id="paint0_linear_1028_547" x1="28" y1="40.5" x2="57.2874" y2="43.2548" gradientUnits="userSpaceOnUse">
<stop stop-color="#7C51F3"/>
<stop offset="0.54021" stop-color="#2BA7AF"/>
<stop offset="0.975" stop-color="#9AEC8D"/>
</linearGradient>
<linearGradient id="paint1_linear_1028_547" x1="5.5" y1="0.5" x2="80.4199" y2="4.98522" gradientUnits="userSpaceOnUse">
<stop stop-color="#7C51F3"/>
<stop offset="0.54021" stop-color="#2BA7AF"/>
<stop offset="0.975" stop-color="#9AEC8D"/>
</linearGradient>
<clipPath id="clip0_1028_547">
<rect width="80" height="80" fill="white" transform="translate(0.5 0.5)"/>
</clipPath>
</defs>
</svg>
