<svg width="21" height="21" viewBox="0 0 21 21" fill="none" xmlns="http://www.w3.org/2000/svg">
<path fill-rule="evenodd" clip-rule="evenodd" d="M10.5007 20.9173C5.59023 20.9173 3.13503 20.9173 1.60898 19.3913C0.0839844 17.8673 0.0839844 15.4111 0.0839844 10.5007C0.0839844 5.59023 0.0839844 3.13503 1.60898 1.60898C3.13607 0.0839844 5.59023 0.0839844 10.5007 0.0839844C15.4111 0.0839844 17.8663 0.0839844 19.3913 1.60898C20.9173 3.13607 20.9173 5.59023 20.9173 10.5007C20.9173 15.4111 20.9173 17.8663 19.3913 19.3913C17.8673 20.9173 15.4111 20.9173 10.5007 20.9173ZM13.0777 6.77044C13.2382 6.90142 13.3401 7.09077 13.361 7.29685C13.3819 7.50293 13.3201 7.70887 13.1892 7.8694L7.23711 15.1611C7.16384 15.2508 7.07153 15.3232 6.96685 15.3728C6.86218 15.4225 6.74776 15.4483 6.6319 15.4483C6.51604 15.4483 6.40162 15.4225 6.29695 15.3728C6.19228 15.3232 6.09996 15.2508 6.02669 15.1611L3.64544 12.2444C3.51976 12.0834 3.46216 11.8795 3.48497 11.6765C3.50777 11.4735 3.60918 11.2875 3.76746 11.1584C3.92575 11.0293 4.12831 10.9673 4.33175 10.9857C4.5352 11.0041 4.72333 11.1014 4.85586 11.2569L6.6319 13.4319L11.9788 6.8819C12.1098 6.72143 12.2991 6.61955 12.5052 6.59865C12.7113 6.57774 12.9172 6.63954 13.0777 6.77044ZM17.2444 6.77044C17.4049 6.90142 17.5068 7.09077 17.5277 7.29685C17.5486 7.50293 17.4868 7.70887 17.3559 7.8694L11.4038 15.1611C11.3261 15.2565 11.227 15.3322 11.1146 15.382C11.0021 15.4319 10.8795 15.4545 10.7566 15.448C10.6338 15.4415 10.5142 15.4061 10.4076 15.3447C10.3011 15.2832 10.2105 15.1975 10.1434 15.0944L9.84648 14.6382C9.75724 14.5012 9.7132 14.3397 9.72056 14.1764C9.72793 14.0131 9.78633 13.8562 9.88755 13.7279C9.98876 13.5995 10.1277 13.5061 10.2848 13.4609C10.4418 13.4156 10.6092 13.4208 10.7632 13.4757L16.1454 6.8819C16.2764 6.72143 16.4658 6.61955 16.6718 6.59865C16.8779 6.57774 17.0839 6.63954 17.2444 6.77044Z" fill="#7C51F3"/>
</svg>
