<svg width="28" height="28" viewBox="0 0 28 28" fill="none" xmlns="http://www.w3.org/2000/svg">
<g clip-path="url(#clip0_67_465)">
<path d="M9.33319 12.5532H8.65653C7.73312 12.5199 6.8127 12.6766 5.95239 13.0138C5.09209 13.3509 4.31026 13.8613 3.65542 14.5132L3.46875 14.731V21.171H6.64208V17.5155L7.06986 17.0332L7.26431 16.8077C8.27691 15.7674 9.53758 15.0019 10.9276 14.5832C10.2317 14.0537 9.68279 13.3548 9.33319 12.5532Z" fill="#2161DF"/>
<path d="M24.3732 14.4898C23.7184 13.8379 22.9365 13.3275 22.0762 12.9903C21.2159 12.6532 20.2955 12.4964 19.3721 12.5298C19.0889 12.5306 18.8059 12.5462 18.5243 12.5765C18.1682 13.3285 17.6343 13.9825 16.9688 14.482C18.4527 14.8926 19.797 15.6991 20.8576 16.8153L21.0521 17.0331L21.4721 17.5153V21.1787H24.5365V14.7076L24.3732 14.4898Z" fill="#2161DF"/>
<path d="M8.63584 11.0362H8.87695C8.76492 10.0743 8.93371 9.10048 9.36293 8.23237C9.79215 7.36426 10.4635 6.63894 11.2958 6.14397C10.9941 5.68302 10.5778 5.30833 10.0878 5.05659C9.59775 4.80486 9.05073 4.6847 8.5003 4.7079C7.94987 4.7311 7.41489 4.89684 6.94776 5.18892C6.48064 5.48099 6.09737 5.88937 5.83549 6.37407C5.57362 6.85877 5.44211 7.40318 5.45385 7.95397C5.46559 8.50477 5.62017 9.04308 5.90246 9.51618C6.18475 9.98928 6.58507 10.381 7.06422 10.6529C7.54337 10.9248 8.08492 11.0676 8.63584 11.0673V11.0362Z" fill="#2161DF"/>
<path d="M19.0014 10.454C19.0109 10.6328 19.0109 10.8119 19.0014 10.9907C19.1507 11.0144 19.3014 11.0274 19.4526 11.0296H19.6003C20.1488 11.0003 20.6804 10.8296 21.1433 10.5339C21.6062 10.2382 21.9847 9.82772 22.2419 9.34236C22.499 8.85701 22.6261 8.31333 22.6108 7.76427C22.5955 7.2152 22.4383 6.67946 22.1544 6.20919C21.8706 5.73893 21.4698 5.35018 20.9912 5.08077C20.5125 4.81137 19.9722 4.6705 19.4229 4.67189C18.8737 4.67327 18.3341 4.81685 17.8568 5.08866C17.3795 5.36047 16.9807 5.75123 16.6992 6.22292C17.4032 6.68253 17.982 7.30971 18.3838 8.04818C18.7857 8.78665 18.9979 9.61332 19.0014 10.454Z" fill="#2161DF"/>
<path d="M13.8985 13.9377C15.8187 13.9377 17.3752 12.3812 17.3752 10.461C17.3752 8.54093 15.8187 6.98438 13.8985 6.98438C11.9784 6.98438 10.4219 8.54093 10.4219 10.461C10.4219 12.3812 11.9784 13.9377 13.8985 13.9377Z" fill="#2161DF"/>
<path d="M14.0838 15.7882C13.0681 15.7472 12.0545 15.9121 11.1042 16.273C10.1538 16.6339 9.28631 17.1833 8.55382 17.8882L8.35938 18.106V23.0293C8.36241 23.1897 8.39701 23.3479 8.4612 23.4949C8.52538 23.6419 8.6179 23.7748 8.73347 23.886C8.84903 23.9972 8.98537 24.0846 9.13471 24.1431C9.28405 24.2017 9.44345 24.2302 9.60382 24.2271H18.5405C18.7009 24.2302 18.8603 24.2017 19.0096 24.1431C19.1589 24.0846 19.2953 23.9972 19.4108 23.886C19.5264 23.7748 19.6189 23.6419 19.6831 23.4949C19.7473 23.3479 19.7819 23.1897 19.7849 23.0293V18.1216L19.5983 17.8882C18.8705 17.1812 18.006 16.6302 17.0578 16.2691C16.1095 15.908 15.0975 15.7443 14.0838 15.7882Z" fill="#2161DF"/>
</g>
<defs>
<clipPath id="clip0_67_465">
<rect width="28" height="28" fill="white"/>
</clipPath>
</defs>
</svg>
