<svg width="575" height="34" viewBox="0 0 575 34" fill="none" xmlns="http://www.w3.org/2000/svg">
<g clip-path="url(#clip0_290_4446)">
<path d="M176.34 28.6434C163.9 25.7171 164.348 6.80733 164.348 6.80733C166.657 6.83164 176.5 4.33789 176.5 4.33789V4.38164C176.5 4.38164 186.344 6.87053 188.653 6.85109C188.653 6.85109 188.775 25.7171 176.34 28.6434Z" fill="#D0CFCE"/>
<path d="M181.631 5.60547C181.631 5.60547 184.764 20.3896 176.5 28.1673C176.5 28.1673 184.278 27.6812 187.194 16.0146C190.111 4.3479 187.194 6.77845 187.194 6.77845L181.631 5.60547Z" fill="#9B9B9A"/>
<path d="M171.951 14.9587L176.406 21.7696L183.554 9.97461L181.074 11.1855L176.422 18.8617L173.522 14.4293L171.951 14.9587Z" fill="#61B2E4"/>
<path d="M176.5 4.33789C176.5 4.33789 166.655 6.83067 164.348 6.80977C164.348 6.80977 163.902 25.7161 176.339 28.643C188.775 25.7151 188.653 6.85109 188.653 6.85109C186.346 6.87247 176.5 4.37921 176.5 4.37921" stroke="black" stroke-width="0.694444" stroke-miterlimit="10" stroke-linecap="round" stroke-linejoin="round"/>
<path d="M171.953 14.9587L176.408 21.7696L183.556 9.97461L181.075 11.1855L176.424 18.8617L173.524 14.4293L171.953 14.9587Z" stroke="black" stroke-width="0.694444" stroke-miterlimit="10" stroke-linecap="round" stroke-linejoin="round"/>
<path d="M209.58 16.265C209.58 15.245 209.81 14.33 210.27 13.52C210.73 12.7 211.355 12.06 212.145 11.6C212.945 11.14 213.83 10.91 214.8 10.91C215.94 10.91 216.935 11.185 217.785 11.735C218.635 12.285 219.255 13.065 219.645 14.075H218.01C217.72 13.445 217.3 12.96 216.75 12.62C216.21 12.28 215.56 12.11 214.8 12.11C214.07 12.11 213.415 12.28 212.835 12.62C212.255 12.96 211.8 13.445 211.47 14.075C211.14 14.695 210.975 15.425 210.975 16.265C210.975 17.095 211.14 17.825 211.47 18.455C211.8 19.075 212.255 19.555 212.835 19.895C213.415 20.235 214.07 20.405 214.8 20.405C215.56 20.405 216.21 20.24 216.75 19.91C217.3 19.57 217.72 19.085 218.01 18.455H219.645C219.255 19.455 218.635 20.23 217.785 20.78C216.935 21.32 215.94 21.59 214.8 21.59C213.83 21.59 212.945 21.365 212.145 20.915C211.355 20.455 210.73 19.82 210.27 19.01C209.81 18.2 209.58 17.285 209.58 16.265ZM225.262 21.635C224.492 21.635 223.792 21.46 223.162 21.11C222.542 20.76 222.052 20.265 221.692 19.625C221.342 18.975 221.167 18.225 221.167 17.375C221.167 16.535 221.347 15.795 221.707 15.155C222.077 14.505 222.577 14.01 223.207 13.67C223.837 13.32 224.542 13.145 225.322 13.145C226.102 13.145 226.807 13.32 227.437 13.67C228.067 14.01 228.562 14.5 228.922 15.14C229.292 15.78 229.477 16.525 229.477 17.375C229.477 18.225 229.287 18.975 228.907 19.625C228.537 20.265 228.032 20.76 227.392 21.11C226.752 21.46 226.042 21.635 225.262 21.635ZM225.262 20.435C225.752 20.435 226.212 20.32 226.642 20.09C227.072 19.86 227.417 19.515 227.677 19.055C227.947 18.595 228.082 18.035 228.082 17.375C228.082 16.715 227.952 16.155 227.692 15.695C227.432 15.235 227.092 14.895 226.672 14.675C226.252 14.445 225.797 14.33 225.307 14.33C224.807 14.33 224.347 14.445 223.927 14.675C223.517 14.895 223.187 15.235 222.937 15.695C222.687 16.155 222.562 16.715 222.562 17.375C222.562 18.045 222.682 18.61 222.922 19.07C223.172 19.53 223.502 19.875 223.912 20.105C224.322 20.325 224.772 20.435 225.262 20.435ZM241.157 13.13C241.797 13.13 242.367 13.265 242.867 13.535C243.367 13.795 243.762 14.19 244.052 14.72C244.342 15.25 244.487 15.895 244.487 16.655V21.5H243.137V16.85C243.137 16.03 242.932 15.405 242.522 14.975C242.122 14.535 241.577 14.315 240.887 14.315C240.177 14.315 239.612 14.545 239.192 15.005C238.772 15.455 238.562 16.11 238.562 16.97V21.5H237.212V16.85C237.212 16.03 237.007 15.405 236.597 14.975C236.197 14.535 235.652 14.315 234.962 14.315C234.252 14.315 233.687 14.545 233.267 15.005C232.847 15.455 232.637 16.11 232.637 16.97V21.5H231.272V13.28H232.637V14.465C232.907 14.035 233.267 13.705 233.717 13.475C234.177 13.245 234.682 13.13 235.232 13.13C235.922 13.13 236.532 13.285 237.062 13.595C237.592 13.905 237.987 14.36 238.247 14.96C238.477 14.38 238.857 13.93 239.387 13.61C239.917 13.29 240.507 13.13 241.157 13.13ZM248.091 14.795C248.361 14.325 248.761 13.935 249.291 13.625C249.831 13.305 250.456 13.145 251.166 13.145C251.896 13.145 252.556 13.32 253.146 13.67C253.746 14.02 254.216 14.515 254.556 15.155C254.896 15.785 255.066 16.52 255.066 17.36C255.066 18.19 254.896 18.93 254.556 19.58C254.216 20.23 253.746 20.735 253.146 21.095C252.556 21.455 251.896 21.635 251.166 21.635C250.466 21.635 249.846 21.48 249.306 21.17C248.776 20.85 248.371 20.455 248.091 19.985V25.4H246.726V13.28H248.091V14.795ZM253.671 17.36C253.671 16.74 253.546 16.2 253.296 15.74C253.046 15.28 252.706 14.93 252.276 14.69C251.856 14.45 251.391 14.33 250.881 14.33C250.381 14.33 249.916 14.455 249.486 14.705C249.066 14.945 248.726 15.3 248.466 15.77C248.216 16.23 248.091 16.765 248.091 17.375C248.091 17.995 248.216 18.54 248.466 19.01C248.726 19.47 249.066 19.825 249.486 20.075C249.916 20.315 250.381 20.435 250.881 20.435C251.391 20.435 251.856 20.315 252.276 20.075C252.706 19.825 253.046 19.47 253.296 19.01C253.546 18.54 253.671 17.99 253.671 17.36ZM258.228 14.615C258.468 14.145 258.808 13.78 259.248 13.52C259.698 13.26 260.243 13.13 260.883 13.13V14.54H260.523C258.993 14.54 258.228 15.37 258.228 17.03V21.5H256.863V13.28H258.228V14.615ZM261.948 17.36C261.948 16.52 262.118 15.785 262.458 15.155C262.798 14.515 263.263 14.02 263.853 13.67C264.453 13.32 265.118 13.145 265.848 13.145C266.568 13.145 267.193 13.3 267.723 13.61C268.253 13.92 268.648 14.31 268.908 14.78V13.28H270.288V21.5H268.908V19.97C268.638 20.45 268.233 20.85 267.693 21.17C267.163 21.48 266.543 21.635 265.833 21.635C265.103 21.635 264.443 21.455 263.853 21.095C263.263 20.735 262.798 20.23 262.458 19.58C262.118 18.93 261.948 18.19 261.948 17.36ZM268.908 17.375C268.908 16.755 268.783 16.215 268.533 15.755C268.283 15.295 267.943 14.945 267.513 14.705C267.093 14.455 266.628 14.33 266.118 14.33C265.608 14.33 265.143 14.45 264.723 14.69C264.303 14.93 263.968 15.28 263.718 15.74C263.468 16.2 263.343 16.74 263.343 17.36C263.343 17.99 263.468 18.54 263.718 19.01C263.968 19.47 264.303 19.825 264.723 20.075C265.143 20.315 265.608 20.435 266.118 20.435C266.628 20.435 267.093 20.315 267.513 20.075C267.943 19.825 268.283 19.47 268.533 19.01C268.783 18.54 268.908 17.995 268.908 17.375ZM276.009 11.9V10.655H278.829V21.5H277.449V11.9H276.009ZM281.174 15.965C281.174 14.245 281.454 12.905 282.014 11.945C282.574 10.975 283.554 10.49 284.954 10.49C286.344 10.49 287.319 10.975 287.879 11.945C288.439 12.905 288.719 14.245 288.719 15.965C288.719 17.715 288.439 19.075 287.879 20.045C287.319 21.015 286.344 21.5 284.954 21.5C283.554 21.5 282.574 21.015 282.014 20.045C281.454 19.075 281.174 17.715 281.174 15.965ZM287.369 15.965C287.369 15.095 287.309 14.36 287.189 13.76C287.079 13.15 286.844 12.66 286.484 12.29C286.134 11.92 285.624 11.735 284.954 11.735C284.274 11.735 283.754 11.92 283.394 12.29C283.044 12.66 282.809 13.15 282.689 13.76C282.579 14.36 282.524 15.095 282.524 15.965C282.524 16.865 282.579 17.62 282.689 18.23C282.809 18.84 283.044 19.33 283.394 19.7C283.754 20.07 284.274 20.255 284.954 20.255C285.624 20.255 286.134 20.07 286.484 19.7C286.844 19.33 287.079 18.84 287.189 18.23C287.309 17.62 287.369 16.865 287.369 15.965ZM290.593 15.965C290.593 14.245 290.873 12.905 291.433 11.945C291.993 10.975 292.973 10.49 294.373 10.49C295.763 10.49 296.738 10.975 297.298 11.945C297.858 12.905 298.138 14.245 298.138 15.965C298.138 17.715 297.858 19.075 297.298 20.045C296.738 21.015 295.763 21.5 294.373 21.5C292.973 21.5 291.993 21.015 291.433 20.045C290.873 19.075 290.593 17.715 290.593 15.965ZM296.788 15.965C296.788 15.095 296.728 14.36 296.608 13.76C296.498 13.15 296.263 12.66 295.903 12.29C295.553 11.92 295.043 11.735 294.373 11.735C293.693 11.735 293.173 11.92 292.813 12.29C292.463 12.66 292.228 13.15 292.108 13.76C291.998 14.36 291.943 15.095 291.943 15.965C291.943 16.865 291.998 17.62 292.108 18.23C292.228 18.84 292.463 19.33 292.813 19.7C293.173 20.07 293.693 20.255 294.373 20.255C295.043 20.255 295.553 20.07 295.903 19.7C296.263 19.33 296.498 18.84 296.608 18.23C296.728 17.62 296.788 16.865 296.788 15.965ZM299.712 13.1C299.712 12.42 299.917 11.88 300.327 11.48C300.737 11.07 301.262 10.865 301.902 10.865C302.542 10.865 303.067 11.07 303.477 11.48C303.887 11.88 304.092 12.42 304.092 13.1C304.092 13.79 303.887 14.34 303.477 14.75C303.067 15.15 302.542 15.35 301.902 15.35C301.262 15.35 300.737 15.15 300.327 14.75C299.917 14.34 299.712 13.79 299.712 13.1ZM308.472 11.03L302.397 21.5H301.047L307.122 11.03H308.472ZM301.902 11.705C301.562 11.705 301.292 11.825 301.092 12.065C300.902 12.295 300.807 12.64 300.807 13.1C300.807 13.56 300.902 13.91 301.092 14.15C301.292 14.39 301.562 14.51 301.902 14.51C302.242 14.51 302.512 14.39 302.712 14.15C302.912 13.9 303.012 13.55 303.012 13.1C303.012 12.64 302.912 12.295 302.712 12.065C302.512 11.825 302.242 11.705 301.902 11.705ZM305.457 19.43C305.457 18.74 305.662 18.195 306.072 17.795C306.482 17.385 307.007 17.18 307.647 17.18C308.287 17.18 308.807 17.385 309.207 17.795C309.617 18.195 309.822 18.74 309.822 19.43C309.822 20.11 309.617 20.655 309.207 21.065C308.807 21.475 308.287 21.68 307.647 21.68C307.007 21.68 306.482 21.48 306.072 21.08C305.662 20.67 305.457 20.12 305.457 19.43ZM307.632 18.035C307.292 18.035 307.022 18.155 306.822 18.395C306.622 18.625 306.522 18.97 306.522 19.43C306.522 19.88 306.622 20.225 306.822 20.465C307.022 20.695 307.292 20.81 307.632 20.81C307.972 20.81 308.242 20.695 308.442 20.465C308.642 20.225 308.742 19.88 308.742 19.43C308.742 18.97 308.642 18.625 308.442 18.395C308.242 18.155 307.972 18.035 307.632 18.035ZM318.527 21.635C317.897 21.635 317.332 21.53 316.832 21.32C316.332 21.1 315.937 20.8 315.647 20.42C315.357 20.03 315.197 19.585 315.167 19.085H316.577C316.617 19.495 316.807 19.83 317.147 20.09C317.497 20.35 317.952 20.48 318.512 20.48C319.032 20.48 319.442 20.365 319.742 20.135C320.042 19.905 320.192 19.615 320.192 19.265C320.192 18.905 320.032 18.64 319.712 18.47C319.392 18.29 318.897 18.115 318.227 17.945C317.617 17.785 317.117 17.625 316.727 17.465C316.347 17.295 316.017 17.05 315.737 16.73C315.467 16.4 315.332 15.97 315.332 15.44C315.332 15.02 315.457 14.635 315.707 14.285C315.957 13.935 316.312 13.66 316.772 13.46C317.232 13.25 317.757 13.145 318.347 13.145C319.257 13.145 319.992 13.375 320.552 13.835C321.112 14.295 321.412 14.925 321.452 15.725H320.087C320.057 15.295 319.882 14.95 319.562 14.69C319.252 14.43 318.832 14.3 318.302 14.3C317.812 14.3 317.422 14.405 317.132 14.615C316.842 14.825 316.697 15.1 316.697 15.44C316.697 15.71 316.782 15.935 316.952 16.115C317.132 16.285 317.352 16.425 317.612 16.535C317.882 16.635 318.252 16.75 318.722 16.88C319.312 17.04 319.792 17.2 320.162 17.36C320.532 17.51 320.847 17.74 321.107 18.05C321.377 18.36 321.517 18.765 321.527 19.265C321.527 19.715 321.402 20.12 321.152 20.48C320.902 20.84 320.547 21.125 320.087 21.335C319.637 21.535 319.117 21.635 318.527 21.635ZM330.954 17.075C330.954 17.335 330.939 17.61 330.909 17.9H324.339C324.389 18.71 324.664 19.345 325.164 19.805C325.674 20.255 326.289 20.48 327.009 20.48C327.599 20.48 328.089 20.345 328.479 20.075C328.879 19.795 329.159 19.425 329.319 18.965H330.789C330.569 19.755 330.129 20.4 329.469 20.9C328.809 21.39 327.989 21.635 327.009 21.635C326.229 21.635 325.529 21.46 324.909 21.11C324.299 20.76 323.819 20.265 323.469 19.625C323.119 18.975 322.944 18.225 322.944 17.375C322.944 16.525 323.114 15.78 323.454 15.14C323.794 14.5 324.269 14.01 324.879 13.67C325.499 13.32 326.209 13.145 327.009 13.145C327.789 13.145 328.479 13.315 329.079 13.655C329.679 13.995 330.139 14.465 330.459 15.065C330.789 15.655 330.954 16.325 330.954 17.075ZM329.544 16.79C329.544 16.27 329.429 15.825 329.199 15.455C328.969 15.075 328.654 14.79 328.254 14.6C327.864 14.4 327.429 14.3 326.949 14.3C326.259 14.3 325.669 14.52 325.179 14.96C324.699 15.4 324.424 16.01 324.354 16.79H329.544ZM336.146 13.145C336.856 13.145 337.476 13.3 338.006 13.61C338.546 13.92 338.946 14.31 339.206 14.78V13.28H340.586V21.68C340.586 22.43 340.426 23.095 340.106 23.675C339.786 24.265 339.326 24.725 338.726 25.055C338.136 25.385 337.446 25.55 336.656 25.55C335.576 25.55 334.676 25.295 333.956 24.785C333.236 24.275 332.811 23.58 332.681 22.7H334.031C334.181 23.2 334.491 23.6 334.961 23.9C335.431 24.21 335.996 24.365 336.656 24.365C337.406 24.365 338.016 24.13 338.486 23.66C338.966 23.19 339.206 22.53 339.206 21.68V19.955C338.936 20.435 338.536 20.835 338.006 21.155C337.476 21.475 336.856 21.635 336.146 21.635C335.416 21.635 334.751 21.455 334.151 21.095C333.561 20.735 333.096 20.23 332.756 19.58C332.416 18.93 332.246 18.19 332.246 17.36C332.246 16.52 332.416 15.785 332.756 15.155C333.096 14.515 333.561 14.02 334.151 13.67C334.751 13.32 335.416 13.145 336.146 13.145ZM339.206 17.375C339.206 16.755 339.081 16.215 338.831 15.755C338.581 15.295 338.241 14.945 337.811 14.705C337.391 14.455 336.926 14.33 336.416 14.33C335.906 14.33 335.441 14.45 335.021 14.69C334.601 14.93 334.266 15.28 334.016 15.74C333.766 16.2 333.641 16.74 333.641 17.36C333.641 17.99 333.766 18.54 334.016 19.01C334.266 19.47 334.601 19.825 335.021 20.075C335.441 20.315 335.906 20.435 336.416 20.435C336.926 20.435 337.391 20.315 337.811 20.075C338.241 19.825 338.581 19.47 338.831 19.01C339.081 18.54 339.206 17.995 339.206 17.375ZM350.183 13.28V21.5H348.818V20.285C348.558 20.705 348.193 21.035 347.723 21.275C347.263 21.505 346.753 21.62 346.193 21.62C345.553 21.62 344.978 21.49 344.468 21.23C343.958 20.96 343.553 20.56 343.253 20.03C342.963 19.5 342.818 18.855 342.818 18.095V13.28H344.168V17.915C344.168 18.725 344.373 19.35 344.783 19.79C345.193 20.22 345.753 20.435 346.463 20.435C347.193 20.435 347.768 20.21 348.188 19.76C348.608 19.31 348.818 18.655 348.818 17.795V13.28H350.183ZM353.853 14.615C354.093 14.145 354.433 13.78 354.873 13.52C355.323 13.26 355.868 13.13 356.508 13.13V14.54H356.148C354.618 14.54 353.853 15.37 353.853 17.03V21.5H352.488V13.28H353.853V14.615ZM357.573 17.36C357.573 16.52 357.743 15.785 358.083 15.155C358.423 14.515 358.888 14.02 359.478 13.67C360.078 13.32 360.743 13.145 361.473 13.145C362.193 13.145 362.818 13.3 363.348 13.61C363.878 13.92 364.273 14.31 364.533 14.78V13.28H365.913V21.5H364.533V19.97C364.263 20.45 363.858 20.85 363.318 21.17C362.788 21.48 362.168 21.635 361.458 21.635C360.728 21.635 360.068 21.455 359.478 21.095C358.888 20.735 358.423 20.23 358.083 19.58C357.743 18.93 357.573 18.19 357.573 17.36ZM364.533 17.375C364.533 16.755 364.408 16.215 364.158 15.755C363.908 15.295 363.568 14.945 363.138 14.705C362.718 14.455 362.253 14.33 361.743 14.33C361.233 14.33 360.768 14.45 360.348 14.69C359.928 14.93 359.593 15.28 359.343 15.74C359.093 16.2 358.968 16.74 358.968 17.36C358.968 17.99 359.093 18.54 359.343 19.01C359.593 19.47 359.928 19.825 360.348 20.075C360.768 20.315 361.233 20.435 361.743 20.435C362.253 20.435 362.718 20.315 363.138 20.075C363.568 19.825 363.908 19.47 364.158 19.01C364.408 18.54 364.533 17.995 364.533 17.375Z" fill="#4A2F94" fill-opacity="0.45"/>
</g>
<defs>
<clipPath id="clip0_290_4446">
<rect width="575" height="34" fill="white"/>
</clipPath>
</defs>
</svg>
