<svg width="25" height="25" viewBox="0 0 25 25" fill="none" xmlns="http://www.w3.org/2000/svg">
<path d="M4.16732 20.8327C3.5944 20.8327 3.10412 20.6289 2.69648 20.2212C2.28885 19.8136 2.08468 19.323 2.08398 18.7493V6.24935C2.08398 5.67643 2.28815 5.18615 2.69648 4.77852C3.10482 4.37088 3.5951 4.16671 4.16732 4.16602H20.834C21.4069 4.16602 21.8975 4.37018 22.3059 4.77852C22.7142 5.18685 22.918 5.67713 22.9173 6.24935V11.64C22.9173 11.883 22.8347 12.0872 22.6694 12.2525C22.5041 12.4178 22.3003 12.5 22.0579 12.4993C21.5371 12.4993 21.025 12.5473 20.5215 12.6431C20.018 12.7389 19.584 12.9688 19.2194 13.3327L15.5736 17.0046L14.7923 16.2493C14.1847 15.6417 13.4555 15.3424 12.6048 15.3514C11.7541 15.3605 11.025 15.6684 10.4173 16.2754C9.86176 16.8309 9.55343 17.4344 9.49232 18.0858C9.43121 18.7372 9.56593 19.3664 9.89648 19.9733C10.0007 20.1643 10.0052 20.3553 9.91003 20.5462C9.81489 20.7372 9.67148 20.8327 9.47982 20.8327H4.16732ZM4.16732 8.33268V12.4993H20.834V8.33268H4.16732ZM15.5736 19.9473L20.7038 14.8171C20.9121 14.6087 21.1597 14.5087 21.4465 14.5171C21.7333 14.5254 21.9805 14.6341 22.1882 14.8431C22.3791 15.0514 22.4791 15.2945 22.4881 15.5723C22.4972 15.85 22.3972 16.0931 22.1882 16.3014L16.3027 22.1868C16.1986 22.291 16.0857 22.3691 15.9642 22.4212C15.8427 22.4733 15.7125 22.4993 15.5736 22.4993C15.4347 22.4993 15.3045 22.4733 15.1829 22.4212C15.0614 22.3691 14.9486 22.291 14.8444 22.1868L11.8757 19.2181C11.6847 19.0271 11.5847 18.7886 11.5757 18.5025C11.5666 18.2164 11.6666 17.9688 11.8757 17.7598C12.0666 17.5688 12.3055 17.4733 12.5923 17.4733C12.8791 17.4733 13.1263 17.5688 13.334 17.7598L15.5736 19.9473Z" fill="#614DDD"/>
</svg>
