<svg width="31" height="31" viewBox="0 0 31 31" fill="none" xmlns="http://www.w3.org/2000/svg">
<path fill-rule="evenodd" clip-rule="evenodd" d="M15.8989 2.0625C15.6503 2.0625 15.4118 2.16127 15.236 2.33709C15.0602 2.5129 14.9614 2.75136 14.9614 3V16.7162L12.8614 14.265C12.7813 14.1714 12.6835 14.0946 12.5737 14.0388C12.4639 13.983 12.3442 13.9494 12.2214 13.9399C12.0986 13.9303 11.9751 13.9451 11.858 13.9833C11.7409 14.0215 11.6325 14.0824 11.5389 14.1625C11.4453 14.2426 11.3685 14.3404 11.3127 14.4502C11.2569 14.56 11.2233 14.6797 11.2137 14.8025C11.2042 14.9253 11.219 15.0488 11.2572 15.1659C11.2954 15.283 11.3563 15.3914 11.4364 15.485L15.1864 19.86C15.2744 19.9629 15.3837 20.0455 15.5067 20.1022C15.6297 20.1589 15.7635 20.1882 15.8989 20.1882C16.0343 20.1882 16.1681 20.1589 16.2911 20.1022C16.4141 20.0455 16.5234 19.9629 16.6114 19.86L20.3614 15.485C20.4415 15.3914 20.5024 15.283 20.5406 15.1659C20.5788 15.0488 20.5936 14.9253 20.584 14.8025C20.5745 14.6797 20.5409 14.56 20.4851 14.4502C20.4293 14.3404 20.3525 14.2426 20.2589 14.1625C20.1653 14.0824 20.0569 14.0215 19.9398 13.9833C19.8227 13.9451 19.6992 13.9303 19.5764 13.9399C19.4536 13.9494 19.3339 13.983 19.2241 14.0388C19.1142 14.0946 19.0165 14.1714 18.9364 14.265L16.8364 16.715V3C16.8364 2.75136 16.7376 2.5129 16.5618 2.33709C16.386 2.16127 16.1475 2.0625 15.8989 2.0625Z" fill="white"/>
<path d="M18.7109 11.75V12.2225C19.2951 12.0148 19.9316 12.0062 20.5213 12.1978C21.111 12.3894 21.6207 12.7706 21.9713 13.282C22.3218 13.7934 22.4935 14.4063 22.4595 15.0254C22.4255 15.6445 22.1878 16.235 21.7834 16.705L18.0334 21.08C17.7694 21.3879 17.4419 21.6351 17.0734 21.8045C16.7049 21.9739 16.304 22.0617 15.8984 22.0617C15.4928 22.0617 15.092 21.9739 14.7235 21.8045C14.355 21.6351 14.0275 21.3879 13.7634 21.08L10.0134 16.705C9.61017 16.2347 9.37344 15.6445 9.34001 15.0259C9.30658 14.4073 9.47832 13.795 9.82857 13.284C10.1788 12.773 10.688 12.392 11.277 12.2001C11.866 12.0081 12.5019 12.016 13.0859 12.2225V11.75H10.8984C7.36344 11.75 5.59469 11.75 4.49719 12.8487C3.39844 13.9462 3.39844 15.715 3.39844 19.25V20.5C3.39844 24.035 3.39844 25.8038 4.49719 26.9013C5.59469 28 7.36344 28 10.8984 28H20.8984C24.4334 28 26.2022 28 27.2997 26.9013C28.3984 25.8038 28.3984 24.035 28.3984 20.5V19.25C28.3984 15.715 28.3984 13.9462 27.2997 12.8487C26.2022 11.75 24.4334 11.75 20.8984 11.75H18.7109Z" fill="white"/>
</svg>
