<svg width="21" height="20" viewBox="0 0 21 20" fill="none" xmlns="http://www.w3.org/2000/svg">
<path d="M13.3745 13.7658L10.8661 11.2574C10.7745 11.1658 10.6661 11.1491 10.6078 11.1491C10.5495 11.1491 10.4411 11.1658 10.3495 11.2574L7.83281 13.7741C7.54948 14.0574 7.10781 14.5158 5.63281 14.5158L8.72448 17.5991C9.19323 18.0673 9.82864 18.3302 10.4911 18.3302C11.1536 18.3302 11.7891 18.0673 12.2578 17.5991L15.3578 14.5074C14.5995 14.5074 13.9661 14.3574 13.3745 13.7658ZM7.83281 6.2241L10.3495 8.74077C10.4161 8.80744 10.5161 8.8491 10.6078 8.8491C10.6995 8.8491 10.7995 8.80744 10.8661 8.74077L13.3578 6.2491C13.9495 5.63244 14.6245 5.49077 15.3828 5.49077L12.2828 2.3991C11.8141 1.93093 11.1786 1.66797 10.5161 1.66797C9.85364 1.66797 9.21823 1.93093 8.74948 2.3991L5.65781 5.48244C7.12448 5.48244 7.57448 5.96577 7.83281 6.2241Z" fill="black" fill-opacity="0.3"/>
<path d="M18.0908 8.20859L16.2158 6.32526H15.1658C14.7158 6.32526 14.2658 6.50859 13.9574 6.83359L11.4574 9.33359C11.2241 9.56693 10.9158 9.68359 10.6074 9.68359C10.2899 9.67912 9.98603 9.55399 9.75744 9.33359L7.24077 6.80859C6.9241 6.49193 6.49077 6.30859 6.03244 6.30859H4.80744L2.8991 8.22526C2.43093 8.69401 2.16797 9.32942 2.16797 9.99193C2.16797 10.6544 2.43093 11.2898 2.8991 11.7586L4.80744 13.6753H6.04077C6.49077 13.6753 6.9241 13.4919 7.2491 13.1753L9.76577 10.6586C9.9991 10.4253 10.3074 10.3086 10.6158 10.3086C10.9241 10.3086 11.2324 10.4253 11.4658 10.6586L13.9741 13.1669C14.2908 13.4836 14.7241 13.6669 15.1824 13.6669H16.2324L18.1074 11.7836C18.5776 11.3064 18.8397 10.6625 18.8366 9.99266C18.8335 9.32278 18.5653 8.68138 18.0908 8.20859Z" fill="black" fill-opacity="0.3"/>
</svg>
