<svg width="44" height="45" viewBox="0 0 44 45" fill="none" xmlns="http://www.w3.org/2000/svg">
<rect x="1" y="1.5" width="42" height="42" rx="21" fill="#6A51B0"/>
<rect x="1" y="1.5" width="42" height="42" rx="21" stroke="#C8B9F0" stroke-width="2"/>
<path d="M20.335 21.3888C21.5138 21.3888 22.6442 20.9206 23.4777 20.0871C24.3112 19.2536 24.7794 18.1231 24.7794 16.9444C24.7794 15.7657 24.3112 14.6352 23.4777 13.8017C22.6442 12.9682 21.5138 12.5 20.335 12.5C19.1563 12.5 18.0258 12.9682 17.1924 13.8017C16.3589 14.6352 15.8906 15.7657 15.8906 16.9444C15.8906 18.1231 16.3589 19.2536 17.1924 20.0871C18.0258 20.9206 19.1563 21.3888 20.335 21.3888Z" stroke="white" stroke-width="1.5" stroke-linecap="round" stroke-linejoin="round"/>
<path d="M31.4448 27.2569C31.4447 27.9255 31.1803 28.5669 30.7093 29.0414C29.6249 30.1347 28.5726 31.2747 27.4471 32.328C27.3214 32.4428 27.1563 32.5049 26.9861 32.5014C26.8159 32.4978 26.6535 32.429 26.5327 32.3091L23.2905 29.0425C22.8192 28.5677 22.5547 27.9259 22.5547 27.2569C22.5547 26.588 22.8192 25.9461 23.2905 25.4714C23.5256 25.2343 23.8054 25.0462 24.1137 24.9177C24.422 24.7893 24.7526 24.7232 25.0866 24.7232C25.4205 24.7232 25.7511 24.7893 26.0594 24.9177C26.3677 25.0462 26.6475 25.2343 26.8827 25.4714L27.0004 25.5903L27.1182 25.4714C27.4714 25.1151 27.9226 24.8719 28.4143 24.7727C28.9061 24.6734 29.4163 24.7226 29.88 24.914C30.3437 25.1054 30.7401 25.4303 31.0187 25.8475C31.2974 26.2647 31.4457 26.7553 31.4448 27.2569Z" stroke="white" stroke-width="1.5" stroke-linejoin="round"/>
<path d="M12.5566 30.2771V29.166C12.5564 27.8538 12.8881 26.5628 13.521 25.4133C14.1539 24.2637 15.0673 23.293 16.1763 22.5915C17.2853 21.89 18.5537 21.4804 19.8636 21.401C21.1734 21.3216 22.482 21.5748 23.6677 22.1372" stroke="white" stroke-width="1.5" stroke-linecap="round" stroke-linejoin="round"/>
</svg>
