<svg width="48" height="45" viewBox="0 0 48 45" fill="none" xmlns="http://www.w3.org/2000/svg">
<path d="M15.4688 39.375C17.0221 39.375 18.2812 38.1158 18.2812 36.5625C18.2812 35.0092 17.0221 33.75 15.4688 33.75C13.9154 33.75 12.6562 35.0092 12.6562 36.5625C12.6562 38.1158 13.9154 39.375 15.4688 39.375Z" fill="url(#paint0_linear_68_623)"/>
<path d="M35.1562 39.375C36.7096 39.375 37.9688 38.1158 37.9688 36.5625C37.9688 35.0092 36.7096 33.75 35.1562 33.75C33.6029 33.75 32.3438 35.0092 32.3438 36.5625C32.3438 38.1158 33.6029 39.375 35.1562 39.375Z" fill="url(#paint1_linear_68_623)"/>
<path d="M40.1484 10.6154C39.9509 10.3738 39.702 10.1791 39.4198 10.0457C39.1377 9.91219 38.8293 9.84321 38.5172 9.84375H11.7677L11.2289 6.78691C11.1715 6.4613 11.0011 6.16635 10.7478 5.95386C10.4945 5.74137 10.1744 5.62493 9.84375 5.625H4.21875C3.84579 5.625 3.4881 5.77316 3.22438 6.03688C2.96066 6.3006 2.8125 6.65829 2.8125 7.03125C2.8125 7.40421 2.96066 7.7619 3.22438 8.02562C3.4881 8.28934 3.84579 8.4375 4.21875 8.4375H8.66426L12.6773 31.1818C12.7348 31.5074 12.9051 31.8024 13.1585 32.0149C13.4118 32.2274 13.7319 32.3438 14.0625 32.3438H36.5625C36.9355 32.3438 37.2931 32.1956 37.5569 31.9319C37.8206 31.6681 37.9688 31.3105 37.9688 30.9375C37.9688 30.5645 37.8206 30.2069 37.5569 29.9431C37.2931 29.6794 36.9355 29.5312 36.5625 29.5312H15.242L14.7463 26.7188H35.9859C36.4736 26.7181 36.9461 26.549 37.3234 26.2401C37.7008 25.9311 37.9598 25.5013 38.0566 25.0233L40.5879 12.3671C40.6489 12.0608 40.6411 11.7448 40.5651 11.4419C40.4891 11.1389 40.3468 10.8567 40.1484 10.6154Z" fill="#2161DF"/>
<rect x="28.125" width="19.6875" height="19.6875" rx="9.84375" fill="#14B811"/>
<path d="M35.4069 12.1976C36.1237 11.5779 36.6874 11.0701 37.0981 10.6744C37.5162 10.2712 37.8634 9.85306 38.1397 9.41999C38.416 8.98693 38.5541 8.55386 38.5541 8.12079C38.5541 7.67279 38.4458 7.32186 38.2293 7.06799C38.0202 6.81413 37.688 6.68719 37.2325 6.68719C36.792 6.68719 36.4485 6.82906 36.2021 7.11279C35.9632 7.38906 35.8362 7.76239 35.8213 8.23279H34.5893C34.6117 7.38159 34.8656 6.73199 35.3509 6.28399C35.8437 5.82853 36.4672 5.60079 37.2213 5.60079C38.0352 5.60079 38.6698 5.82479 39.1253 6.27279C39.5882 6.72079 39.8197 7.31813 39.8197 8.06479C39.8197 8.60239 39.6816 9.12133 39.4053 9.62159C39.1365 10.1144 38.8117 10.5587 38.4309 10.9544C38.0576 11.3427 37.5797 11.7944 36.9973 12.3096L36.4933 12.7576H40.0437V13.8216H34.6005V12.892L35.4069 12.1976Z" fill="white"/>
<defs>
<linearGradient id="paint0_linear_68_623" x1="12.6563" y1="33.75" x2="19.4588" y2="34.0095" gradientUnits="userSpaceOnUse">
<stop stop-color="#2161DF"/>
<stop offset="0.993279" stop-color="#DB265C"/>
</linearGradient>
<linearGradient id="paint1_linear_68_623" x1="32.3438" y1="33.75" x2="39.1463" y2="34.0095" gradientUnits="userSpaceOnUse">
<stop stop-color="#2161DF"/>
<stop offset="0.993279" stop-color="#DB265C"/>
</linearGradient>
</defs>
</svg>
