<svg width="24" height="24" viewBox="0 0 24 24" fill="none" xmlns="http://www.w3.org/2000/svg">
<path fill-rule="evenodd" clip-rule="evenodd" d="M2.45574 11.116C3.53174 9.234 6.55574 5 12.0007 5C17.4447 5 20.4697 9.234 21.5447 11.116C21.7657 11.502 21.8757 11.696 21.8647 11.984C21.8517 12.272 21.7217 12.46 21.4627 12.836C20.1827 14.694 16.7067 19 12.0007 19C7.29474 19 3.81874 14.694 2.53874 12.836C2.27874 12.46 2.14874 12.272 2.13774 11.984C2.12474 11.696 2.23574 11.502 2.45574 11.116ZM12.0007 15C12.7964 15 13.5595 14.6839 14.1221 14.1213C14.6847 13.5587 15.0007 12.7956 15.0007 12C15.0007 11.2044 14.6847 10.4413 14.1221 9.87868C13.5595 9.31607 12.7964 9 12.0007 9C11.2051 9 10.442 9.31607 9.87942 9.87868C9.31681 10.4413 9.00074 11.2044 9.00074 12C9.00074 12.7956 9.31681 13.5587 9.87942 14.1213C10.442 14.6839 11.2051 15 12.0007 15Z" fill="black" fill-opacity="0.25"/>
<path d="M12.0015 5C6.55747 5 3.53247 9.234 2.45747 11.116C2.23647 11.502 2.12647 11.696 2.13747 11.984C2.15047 12.272 2.28047 12.46 2.53947 12.836C3.81947 14.694 7.29547 19 12.0015 19C16.7075 19 20.1835 14.694 21.4635 12.836C21.7235 12.46 21.8535 12.272 21.8645 11.984C21.8755 11.696 21.7665 11.502 21.5455 11.116C20.4715 9.234 17.4455 5 12.0015 5Z" stroke="black" stroke-width="1.2"/>
<path d="M12 15C13.6569 15 15 13.6569 15 12C15 10.3431 13.6569 9 12 9C10.3431 9 9 10.3431 9 12C9 13.6569 10.3431 15 12 15Z" stroke="black" stroke-width="1.2"/>
</svg>
