<svg width="35" height="35" viewBox="0 0 35 35" fill="none" xmlns="http://www.w3.org/2000/svg">
<g clip-path="url(#clip0_2_597)">
<path d="M16.4763 3.20057C17.0517 2.98525 17.6805 2.95718 18.2729 3.12036L18.5238 3.20057L28.7321 7.0287C29.2497 7.22278 29.7015 7.55997 30.0348 8.00097C30.3681 8.44197 30.5693 8.96861 30.6148 9.51953L30.625 9.76015V17.5812C30.6249 19.9443 29.9869 22.2636 28.7782 24.2942C27.5695 26.3248 25.8349 27.9914 23.7577 29.1181L23.3698 29.3208L18.4785 31.7664C18.2092 31.9009 17.9151 31.9783 17.6144 31.9939C17.3138 32.0094 17.0132 31.9628 16.7315 31.8568L16.5215 31.7664L11.6302 29.3208C9.51652 28.2639 7.72738 26.656 6.45167 24.6667C5.17596 22.6774 4.46101 20.3806 4.38229 18.0187L4.375 17.5812V9.76015C4.37501 9.20763 4.53196 8.66648 4.82757 8.19969C5.12318 7.73291 5.54531 7.35969 6.04479 7.12349L6.26792 7.0287L16.4763 3.20057ZM17.5 5.93203L7.29167 9.76015V17.5812C7.2917 19.4114 7.78379 21.208 8.71639 22.7828C9.649 24.3575 10.9878 25.6526 12.5927 26.5324L12.9354 26.7118L17.5 28.9941L22.0646 26.7118C23.7019 25.8933 25.089 24.6496 26.0806 23.111C27.0723 21.5724 27.6319 19.7954 27.701 17.9662L27.7083 17.5812V9.76015L17.5 5.93203ZM22.5065 12.5835C22.7689 12.3219 23.121 12.1701 23.4914 12.1588C23.8617 12.1475 24.2225 12.2776 24.5004 12.5226C24.7783 12.7676 24.9525 13.1093 24.9877 13.4781C25.0228 13.847 24.9162 14.2154 24.6896 14.5085L24.5685 14.6456L16.9356 22.2799C16.6576 22.5579 16.2871 22.7241 15.8946 22.747C15.5021 22.7699 15.1149 22.6478 14.8065 22.4039L14.6665 22.2799L11.1606 18.7741C10.8963 18.5123 10.742 18.1593 10.7294 17.7875C10.7168 17.4156 10.8468 17.053 11.0928 16.7739C11.3387 16.4947 11.6821 16.3202 12.0526 16.2859C12.423 16.2516 12.7926 16.3602 13.0856 16.5895L13.2227 16.7106L15.801 19.2889L22.5065 12.5835Z" fill="#C8B9F0"/>
</g>
<defs>
<clipPath id="clip0_2_597">
<rect width="35" height="35" fill="white"/>
</clipPath>
</defs>
</svg>
