<svg xmlns="http://www.w3.org/2000/svg" style="display: none;">
    <symbol id="seguidores">
        <svg viewBox="0 0 24 24" fill="none" xmlns="http://www.w3.org/2000/svg">
            <path
                d="M11 9C13.2091 9 15 7.20914 15 5C15 2.79086 13.2091 1 11 1C8.79086 1 7 2.79086 7 5C7 7.20914 8.79086 9 11 9Z"
                stroke="currentColor" stroke-width="1.5" />
            <path opacity="0.5"
                d="M14 12.327C13.0152 12.1071 12.009 11.9974 11 12C6.582 12 3 14.015 3 16.5C3 18.985 3 21 11 21C16.687 21 18.331 19.982 18.807 18.5"
                stroke="currentColor" stroke-width="1.5" />
            <path
                d="M17 19C19.2091 19 21 17.2091 21 15C21 12.7909 19.2091 11 17 11C14.7909 11 13 12.7909 13 15C13 17.2091 14.7909 19 17 19Z"
                stroke="currentColor" stroke-width="1.5" />
            <path d="M17.001 13.668V16.334M15.668 15.001H18.334" stroke="currentColor"
                stroke-width="1.5"
                stroke-linecap="round" stroke-linejoin="round" />
        </svg>

    </symbol>
    <symbol id="curtidas">
        <svg viewBox="0 0 24 24" fill="none" xmlns="http://www.w3.org/2000/svg">
            <path
                d="M7.5 4C4.4625 4 2 6.4625 2 9.5C2 15 8.5 20 12 21.163C15.5 20 22 15 22 9.5C22 6.4625 19.5375 4 16.5 4C14.64 4 12.995 4.9235 12 6.337C11.4928 5.61469 10.819 5.0252 10.0357 4.61841C9.25238 4.21162 8.38263 3.9995 7.5 4Z"
                fill="currentColor" stroke="currentColor" stroke-width="2" stroke-linecap="round"
                stroke-linejoin="round" />
        </svg>

    </symbol>
    <symbol id="visualizacoes">
        <svg viewBox="0 0 28 28" fill="none" xmlns="http://www.w3.org/2000/svg">
            <path
                d="M14 1.75C11.5772 1.75 9.20877 2.46845 7.19427 3.8145C5.17977 5.16054 3.60965 7.07373 2.68248 9.31213C1.75531 11.5505 1.51272 14.0136 1.98539 16.3899C2.45805 18.7661 3.62475 20.9489 5.33795 22.6621C7.05114 24.3752 9.23388 25.542 11.6101 26.0146C13.9864 26.4873 16.4495 26.2447 18.6879 25.3175C20.9263 24.3904 22.8395 22.8202 24.1855 20.8057C25.5316 18.7912 26.25 16.4228 26.25 14C26.25 10.7511 24.9594 7.63526 22.6621 5.33794C20.3647 3.04062 17.2489 1.75 14 1.75ZM20.5161 14.7831L10.0161 20.0331C9.8827 20.0998 9.73443 20.1313 9.58542 20.1245C9.4364 20.1178 9.29159 20.073 9.16473 19.9946C9.03787 19.9161 8.93317 19.8065 8.86059 19.6762C8.788 19.5459 8.74994 19.3992 8.75001 19.25V8.75C8.75009 8.60091 8.78826 8.45431 8.86091 8.32411C8.93355 8.19392 9.03826 8.08444 9.1651 8.00608C9.29194 7.92772 9.4367 7.88306 9.58564 7.87635C9.73458 7.86965 9.88276 7.90111 10.0161 7.96775L20.5161 13.2177C20.6613 13.2905 20.7833 13.4022 20.8686 13.5403C20.9539 13.6785 20.9991 13.8376 20.9991 14C20.9991 14.1624 20.9539 14.3215 20.8686 14.4597C20.7833 14.5978 20.6613 14.7095 20.5161 14.7822"
                fill="currentColor" />
        </svg>
    </symbol>
    <symbol id="visualizacoes_youtube">
        <svg viewBox="0 0 24 24" fill="none" xmlns="http://www.w3.org/2000/svg">
            <path
                d="M0 18V6C0 5.20435 0.316071 4.44129 0.87868 3.87868C1.44129 3.31607 2.20435 3 3 3H21C21.7956 3 22.5587 3.31607 23.1213 3.87868C23.6839 4.44129 24 5.20435 24 6V18C24 18.7956 23.6839 19.5587 23.1213 20.1213C22.5587 20.6839 21.7956 21 21 21H3C2.20435 21 1.44129 20.6839 0.87868 20.1213C0.316071 19.5587 0 18.7956 0 18ZM10.185 7.6395C10.0729 7.55965 9.9409 7.51221 9.80358 7.50238C9.66627 7.49254 9.52889 7.52069 9.40651 7.58374C9.28413 7.64679 9.18147 7.74231 9.10976 7.85983C9.03806 7.97735 9.00008 8.11233 9 8.25V15.75C9.00008 15.8877 9.03806 16.0227 9.10976 16.1402C9.18147 16.2577 9.28413 16.3532 9.40651 16.4163C9.52889 16.4793 9.66627 16.5075 9.80358 16.4976C9.9409 16.4878 10.0729 16.4403 10.185 16.3605L15.435 12.6105C15.5322 12.5411 15.6115 12.4495 15.6661 12.3433C15.7208 12.2372 15.7494 12.1194 15.7494 12C15.7494 11.8806 15.7208 11.7628 15.6661 11.6567C15.6115 11.5505 15.5322 11.4589 15.435 11.3895L10.185 7.6395Z"
                fill="currentColor" />
        </svg>

    </symbol>
    <symbol id="comentarios">
        <svg viewBox="0 0 24 24" fill="none"
            xmlns="http://www.w3.org/2000/svg">
            <path
                d="M21.99 4C21.99 2.9 21.1 2 20 2H4C2.9 2 2 2.9 2 4V16C2 17.1 2.9 18 4 18H18L22 22L21.99 4ZM18 14H6V12H18V14ZM18 11H6V9H18V11ZM18 8H6V6H18V8Z"
                fill="currentColor" />
        </svg>

    </symbol>
    <symbol id="avaliacoes">
        <svg viewBox="0 0 24 24" fill="none"
            xmlns="http://www.w3.org/2000/svg">
            <path
                d="M12 6L13.434 8.77725L16.5 9.22275L14.25 11.25L15 14.25L12 12.5625L9 14.25L9.75 11.25L7.5 9.22275L10.65 8.77725L12 6Z"
                fill="currentColor" />
            <path
                d="M13.302 22.5L12 21.75L15 16.5H19.5C19.6971 16.5003 19.8923 16.4617 20.0744 16.3864C20.2565 16.3111 20.422 16.2007 20.5613 16.0613C20.7007 15.922 20.8111 15.7565 20.8864 15.5744C20.9617 15.3923 21.0003 15.1971 21 15V6C21.0003 5.80293 20.9617 5.60775 20.8864 5.42562C20.8111 5.2435 20.7007 5.07803 20.5613 4.93868C20.422 4.79933 20.2565 4.68885 20.0744 4.61358C19.8923 4.5383 19.6971 4.4997 19.5 4.5H4.5C4.30293 4.4997 4.10775 4.5383 3.92562 4.61358C3.7435 4.68885 3.57803 4.79933 3.43868 4.93868C3.29933 5.07803 3.18885 5.2435 3.11358 5.42562C3.0383 5.60775 2.9997 5.80293 3 6V15C2.9997 15.1971 3.0383 15.3923 3.11358 15.5744C3.18885 15.7565 3.29933 15.922 3.43868 16.0613C3.57803 16.2007 3.7435 16.3111 3.92562 16.3864C4.10775 16.4617 4.30293 16.5003 4.5 16.5H11.25V18H4.5C3.70435 18 2.94129 17.6839 2.37868 17.1213C1.81607 16.5587 1.5 15.7956 1.5 15V6C1.5 5.20435 1.81607 4.44129 2.37868 3.87868C2.94129 3.31607 3.70435 3 4.5 3H19.5C20.2956 3 21.0587 3.31607 21.6213 3.87868C22.1839 4.44129 22.5 5.20435 22.5 6V15C22.5 15.7956 22.1839 16.5587 21.6213 17.1213C21.0587 17.6839 20.2956 18 19.5 18H15.8738L13.302 22.5Z"
                fill="currentColor" />
        </svg>
    </symbol>
    <symbol id="outro">
        <svg viewBox="0 0 23 23" fill="none" xmlns="http://www.w3.org/2000/svg">
            <path
                d="M11.075 13.8478L12.4911 15.2598L16.7289 11.0106L12.4797 6.77378L11.0677 8.19084L12.8974 10.0162L5.36041 10.0272L5.36333 12.0272L12.9003 12.0162L11.075 13.8478Z"
                fill="currentColor" />
            <path fill-rule="evenodd" clip-rule="evenodd"
                d="M18.8074 18.7846C23.0971 14.4824 23.0869 7.51838 18.7847 3.22866C14.4824 -1.06106 7.5184 -1.05088 3.22868 3.25139C-1.06103 7.55367 -1.05086 14.5177 3.25142 18.8074C7.55369 23.0971 14.5177 23.0869 18.8074 18.7846ZM17.3913 17.3727C19.0767 15.6824 20.0216 13.3918 20.0181 11.0049C20.0146 8.6179 19.063 6.33009 17.3727 4.64472C15.6824 2.95935 13.3918 2.01448 11.0049 2.01797C8.61793 2.02146 6.33012 2.97302 4.64475 4.66333C2.95938 6.35363 2.01451 8.64421 2.018 11.0312C2.02148 13.4181 2.97305 15.7059 4.66335 17.3913C6.35365 19.0767 8.64423 20.0216 11.0312 20.0181C13.4182 20.0146 15.706 19.063 17.3913 17.3727Z"
                fill="currentColor" />
        </svg>
    </symbol>
</svg>