<svg width="50" height="50" viewBox="0 0 50 50" fill="none" xmlns="http://www.w3.org/2000/svg">
    <g clip-path="url(#clip0_1597_666)">
        <path fill-rule="evenodd" clip-rule="evenodd"
            d="M45.3125 25C45.3125 30.3872 43.1724 35.5538 39.3631 39.3631C35.5538 43.1724 30.3872 45.3125 25 45.3125C19.6128 45.3125 14.4462 43.1724 10.6369 39.3631C6.82756 35.5538 4.6875 30.3872 4.6875 25C4.6875 19.6128 6.82756 14.4462 10.6369 10.6369C14.4462 6.82756 19.6128 4.6875 25 4.6875C30.3872 4.6875 35.5538 6.82756 39.3631 10.6369C43.1724 14.4462 45.3125 19.6128 45.3125 25ZM50 25C50 31.6304 47.3661 37.9893 42.6777 42.6777C37.9893 47.3661 31.6304 50 25 50C18.3696 50 12.0107 47.3661 7.32233 42.6777C2.63392 37.9893 0 31.6304 0 25C0 18.3696 2.63392 12.0107 7.32233 7.32233C12.0107 2.63392 18.3696 0 25 0C31.6304 0 37.9893 2.63392 42.6777 7.32233C47.3661 12.0107 50 18.3696 50 25ZM16.5 13.1875C16.0557 12.7735 15.4681 12.5481 14.8609 12.5588C14.2537 12.5695 13.6743 12.8155 13.2449 13.2449C12.8155 13.6743 12.5695 14.2537 12.5588 14.8609C12.5481 15.4681 12.7735 16.0557 13.1875 16.5L33.5 36.8125C33.7146 37.0428 33.9733 37.2275 34.2608 37.3556C34.5483 37.4837 34.8587 37.5525 35.1734 37.5581C35.4881 37.5637 35.8007 37.5058 36.0925 37.3879C36.3843 37.27 36.6494 37.0946 36.872 36.872C37.0946 36.6494 37.27 36.3843 37.3879 36.0925C37.5058 35.8007 37.5637 35.4881 37.5581 35.1734C37.5525 34.8587 37.4837 34.5483 37.3556 34.2608C37.2275 33.9733 37.0428 33.7146 36.8125 33.5L16.5 13.1875Z"
            fill="#FFDD55" />
    </g>
    <defs>
        <clipPath id="clip0_1597_666">
            <rect width="50" height="50" fill="white" />
        </clipPath>
    </defs>
</svg>
    