<svg width="50" height="50" viewBox="0 0 50 50" fill="none" xmlns="http://www.w3.org/2000/svg">
    <path
        d="M25 34.2958C25.3639 34.2958 25.6681 34.1729 25.9125 33.9271C26.1583 33.6812 26.2812 33.3764 26.2812 33.0125C26.2812 32.65 26.1583 32.3458 25.9125 32.1C25.6681 31.8542 25.3639 31.7312 25 31.7312C24.6361 31.7312 24.3319 31.8542 24.0875 32.1C23.8417 32.3458 23.7188 32.65 23.7188 33.0125C23.7188 33.3764 23.8417 33.6812 24.0875 33.9271C24.3319 34.1729 24.6361 34.2958 25 34.2958ZM23.9583 27.4042H26.0417V14.9042H23.9583V27.4042ZM25.0063 43.75C22.4146 43.75 19.9771 43.2583 17.6937 42.275C15.4118 41.2903 13.4264 39.9542 11.7375 38.2667C10.0486 36.5806 8.71181 34.5972 7.72708 32.3167C6.74236 30.0361 6.25 27.5993 6.25 25.0063C6.25 22.4146 6.74167 19.9771 7.725 17.6937C8.70972 15.4118 10.0458 13.4264 11.7333 11.7375C13.4194 10.0486 15.4028 8.71181 17.6833 7.72708C19.9639 6.74236 22.4007 6.25 24.9937 6.25C27.5854 6.25 30.0229 6.74167 32.3062 7.725C34.5882 8.70972 36.5736 10.0458 38.2625 11.7333C39.9514 13.4194 41.2882 15.4028 42.2729 17.6833C43.2576 19.9639 43.75 22.4007 43.75 24.9937C43.75 27.5854 43.2583 30.0229 42.275 32.3062C41.2903 34.5882 39.9542 36.5736 38.2667 38.2625C36.5806 39.9514 34.5972 41.2882 32.3167 42.2729C30.0361 43.2576 27.5993 43.75 25.0063 43.75ZM25 41.6667C29.6528 41.6667 33.5937 40.0521 36.8229 36.8229C40.0521 33.5937 41.6667 29.6528 41.6667 25C41.6667 20.3472 40.0521 16.4062 36.8229 13.1771C33.5937 9.94792 29.6528 8.33333 25 8.33333C20.3472 8.33333 16.4062 9.94792 13.1771 13.1771C9.94792 16.4062 8.33333 20.3472 8.33333 25C8.33333 29.6528 9.94792 33.5937 13.1771 36.8229C16.4062 40.0521 20.3472 41.6667 25 41.6667Z"
        fill="#FFDD55" />
</svg>
    