<svg width="50" height="50" viewBox="0 0 50 50" fill="none" xmlns="http://www.w3.org/2000/svg">
    <path
        d="M35.835 4.16602H14.1662C11.1287 4.16602 8.46414 6.2181 8.34331 9.17435C8.18914 12.8931 10.8058 15.3618 13.5516 17.6806C17.3537 20.8889 19.2537 22.4931 19.4516 24.5223C19.4836 24.8403 19.4836 25.1584 19.4516 25.4764C19.2537 27.5077 17.3537 29.1098 13.5516 32.3181C10.7287 34.6993 8.18081 36.916 8.34331 40.8243C8.46206 43.7827 11.1246 45.8327 14.1641 45.8327H35.8329C38.8704 45.8327 41.535 43.7806 41.6579 40.8243C41.7537 38.4702 40.8808 36.1285 39.0287 34.4993C38.185 33.7556 37.3079 33.0452 36.4454 32.3181C32.6454 29.1098 30.7454 27.5056 30.5475 25.4764C30.5157 25.1592 30.5157 24.8395 30.5475 24.5223C30.7454 22.491 32.6475 20.8889 36.4475 17.6806C39.2391 15.3243 41.8162 13.0368 41.6558 9.17435C41.5391 6.21602 38.8725 4.16602 35.835 4.16602Z"
        stroke="#614DDD" stroke-width="3.125" stroke-linecap="round" stroke-linejoin="round" />
    <path
        d="M18.75 45.0788C18.75 44.1579 18.75 43.6975 18.9333 43.2954C18.9621 43.2314 18.9941 43.1688 19.0292 43.1079C19.2521 42.7267 19.6292 42.4579 20.3833 41.9184C22.4792 40.4204 23.5292 39.6725 24.7187 39.5934C24.9062 39.5809 25.0938 39.5809 25.2813 39.5934C26.4729 39.6725 27.5208 40.4204 29.6146 41.9184C30.3708 42.4579 30.7479 42.7267 30.9708 43.1079C31.0069 43.1704 31.0389 43.2329 31.0667 43.2954C31.25 43.6975 31.25 44.1579 31.25 45.0788V45.8329H18.75V45.0788Z"
        stroke="#614DDD" stroke-width="3.125" stroke-linecap="round" stroke-linejoin="round" />
</svg>
    