<svg width="50" height="51" viewBox="0 0 50 51" fill="none" xmlns="http://www.w3.org/2000/svg">
    <g clip-path="url(#clip0_1614_3593)">
        <path fill-rule="evenodd" clip-rule="evenodd"
            d="M27.5 40.5C28.8261 40.5 30.0979 41.0268 31.0355 41.9645C31.9732 42.9021 32.5 44.1739 32.5 45.5C32.5 46.8261 31.9732 48.0979 31.0355 49.0355C30.0979 49.9732 28.8261 50.5 27.5 50.5C26.1739 50.5 24.9021 49.9732 23.9645 49.0355C23.0268 48.0979 22.5 46.8261 22.5 45.5C22.5 44.1739 23.0268 42.9021 23.9645 41.9645C24.9021 41.0268 26.1739 40.5 27.5 40.5ZM11.8525 33C13.5101 33 15.0998 33.6585 16.2719 34.8306C17.444 36.0027 18.1025 37.5924 18.1025 39.25C18.1025 40.9076 17.444 42.4973 16.2719 43.6694C15.0998 44.8415 13.5101 45.5 11.8525 45.5C10.1949 45.5 8.60518 44.8415 7.43308 43.6694C6.26098 42.4973 5.6025 40.9076 5.6025 39.25C5.6025 37.5924 6.26098 36.0027 7.43308 34.8306C8.60518 33.6585 10.1949 33 11.8525 33ZM40.7975 34.25C42.1236 34.25 43.3954 34.7768 44.333 35.7145C45.2707 36.6521 45.7975 37.9239 45.7975 39.25C45.7975 40.5761 45.2707 41.8479 44.333 42.7855C43.3954 43.7232 42.1236 44.25 40.7975 44.25C39.4714 44.25 38.1996 43.7232 37.262 42.7855C36.3243 41.8479 35.7975 40.5761 35.7975 39.25C35.7975 37.9239 36.3243 36.6521 37.262 35.7145C38.1996 34.7768 39.4714 34.25 40.7975 34.25ZM46.25 23.7975C47.2446 23.7975 48.1984 24.1926 48.9016 24.8958C49.6049 25.5991 50 26.5529 50 27.5475C50 28.5421 49.6049 29.4959 48.9016 30.1992C48.1984 30.9024 47.2446 31.2975 46.25 31.2975C45.2554 31.2975 44.3016 30.9024 43.5984 30.1992C42.8951 29.4959 42.5 28.5421 42.5 27.5475C42.5 26.5529 42.8951 25.5991 43.5984 24.8958C44.3016 24.1926 45.2554 23.7975 46.25 23.7975ZM6.25 15.5C7.9076 15.5 9.49732 16.1585 10.6694 17.3306C11.8415 18.5027 12.5 20.0924 12.5 21.75C12.5 23.4076 11.8415 24.9973 10.6694 26.1694C9.49732 27.3415 7.9076 28 6.25 28C4.5924 28 3.00269 27.3415 1.83058 26.1694C0.65848 24.9973 0 23.4076 0 21.75C0 20.0924 0.65848 18.5027 1.83058 17.3306C3.00269 16.1585 4.5924 15.5 6.25 15.5ZM44.465 13.5175C45.128 13.5175 45.7639 13.7809 46.2328 14.2497C46.7016 14.7186 46.965 15.3545 46.965 16.0175C46.965 16.6805 46.7016 17.3164 46.2328 17.7853C45.7639 18.2541 45.128 18.5175 44.465 18.5175C43.802 18.5175 43.1661 18.2541 42.6972 17.7853C42.2284 17.3164 41.965 16.6805 41.965 16.0175C41.965 15.3545 42.2284 14.7186 42.6972 14.2497C43.1661 13.7809 43.802 13.5175 44.465 13.5175ZM20 0.5C21.9891 0.5 23.8968 1.29018 25.3033 2.6967C26.7098 4.10322 27.5 6.01088 27.5 8C27.5 9.98912 26.7098 11.8968 25.3033 13.3033C23.8968 14.7098 21.9891 15.5 20 15.5C18.0109 15.5 16.1032 14.7098 14.6967 13.3033C13.2902 11.8968 12.5 9.98912 12.5 8C12.5 6.01088 13.2902 4.10322 14.6967 2.6967C16.1032 1.29018 18.0109 0.5 20 0.5ZM38.75 8C39.0815 8 39.3995 8.1317 39.6339 8.36612C39.8683 8.60054 40 8.91848 40 9.25C40 9.58152 39.8683 9.89946 39.6339 10.1339C39.3995 10.3683 39.0815 10.5 38.75 10.5C38.4185 10.5 38.1005 10.3683 37.8661 10.1339C37.6317 9.89946 37.5 9.58152 37.5 9.25C37.5 8.91848 37.6317 8.60054 37.8661 8.36612C38.1005 8.1317 38.4185 8 38.75 8Z"
            fill="#614DDD" />
    </g>
    <defs>
        <clipPath id="clip0_1614_3593">
            <rect width="50" height="50" fill="white" transform="translate(0 0.5)" />
        </clipPath>
    </defs>
</svg>
    