<svg width="25" height="26" viewBox="0 0 25 26" fill="none" xmlns="http://www.w3.org/2000/svg">
    <path
        d="M20.4219 8.55768L13.1016 15.7624C12.9419 15.9204 12.7263 16.009 12.5016 16.009C12.2769 16.009 12.0613 15.9204 11.9016 15.7624L4.57973 8.55924C4.41863 8.40205 4.20247 8.31406 3.97739 8.31406C3.75231 8.31406 3.53614 8.40205 3.37504 8.55924C3.2959 8.63639 3.23301 8.7286 3.19007 8.83044C3.14712 8.93228 3.125 9.04169 3.125 9.15221C3.125 9.26273 3.14712 9.37214 3.19007 9.47397C3.23301 9.57581 3.2959 9.66803 3.37504 9.74518L10.6938 16.9483C11.1759 17.4216 11.8245 17.6868 12.5 17.6868C13.1756 17.6868 13.8242 17.4216 14.3063 16.9483L21.625 9.74518C21.7044 9.668 21.7675 9.57569 21.8106 9.47371C21.8537 9.37173 21.8759 9.26214 21.8759 9.15143C21.8759 9.04072 21.8537 8.93113 21.8106 8.82914C21.7675 8.72716 21.7044 8.63485 21.625 8.55768C21.4639 8.40049 21.2478 8.3125 21.0227 8.3125C20.7976 8.3125 20.5815 8.40049 20.4204 8.55768"
        fill="#614DDD" />
</svg>
    