<svg width="25" height="26" viewBox="0 0 25 26" fill="none" xmlns="http://www.w3.org/2000/svg">
    <path
        d="M15.625 16.9063C17.1554 16.9066 18.6442 16.4077 19.8653 15.4851C21.0864 14.5626 21.9731 13.2668 22.391 11.7945C22.8088 10.3222 22.7348 8.75384 22.1803 7.32741C21.6258 5.90098 20.621 4.69441 19.3185 3.89088C18.016 3.08734 16.4869 2.73071 14.9633 2.87513C13.4397 3.01955 12.0048 3.65713 10.8765 4.69108C9.74815 5.72503 8.98797 7.09889 8.71135 8.60411C8.43473 10.1093 8.65676 11.6637 9.34375 13.0313L2.34375 20.0313V23.1563H5.46875V20.0313H8.59375V16.9063H11.7188L12.4688 16.1563C13.4063 16.625 14.5 16.9063 15.625 16.9063Z"
        stroke="#CAD3F5" stroke-width="1.5625" stroke-linecap="round" stroke-linejoin="round" />
    <path
        d="M18.75 8.3125C18.75 8.7269 18.5854 9.12433 18.2924 9.41735C17.9993 9.71038 17.6019 9.875 17.1875 9.875C16.7731 9.875 16.3757 9.71038 16.0826 9.41735C15.7896 9.12433 15.625 8.7269 15.625 8.3125C15.625 7.8981 15.7896 7.50067 16.0826 7.20765C16.3757 6.91462 16.7731 6.75 17.1875 6.75C17.6019 6.75 17.9993 6.91462 18.2924 7.20765C18.5854 7.50067 18.75 7.8981 18.75 8.3125Z"
        stroke="#CAD3F5" stroke-width="1.5625" stroke-linecap="round" stroke-linejoin="round" />
</svg>
    