<svg width="25" height="26" viewBox="0 0 25 26" fill="none" xmlns="http://www.w3.org/2000/svg">
    <path
        d="M8.59332 16.9058L16.4058 9.09332M5.82769 10.8277L4.17144 12.4839C2.99869 13.6567 2.33984 15.2473 2.33984 16.9058C2.33984 18.5643 2.99869 20.1549 4.17144 21.3277C5.3442 22.5004 6.93479 23.1593 8.59332 23.1593C10.2518 23.1593 11.8424 22.5004 13.0152 21.3277L14.6714 19.6714M19.1714 15.1714L20.8277 13.5152C22.0004 12.3424 22.6593 10.7518 22.6593 9.09332C22.6593 7.43479 22.0004 5.8442 20.8277 4.67144C19.6549 3.49869 18.0643 2.83984 16.4058 2.83984C14.7473 2.83984 13.1567 3.49869 11.9839 4.67144L10.3277 6.32769"
        stroke="#91D7E3" stroke-width="1.5625" stroke-linecap="round" stroke-linejoin="round" />
</svg>
    