<svg width="25" height="26" viewBox="0 0 25 26" fill="none" xmlns="http://www.w3.org/2000/svg">
    <path
        d="M3.43237 21.9606L10.0615 15.3314M18.4094 12.3835L16.4251 18.3377C16.3933 18.4329 16.339 18.5191 16.2668 18.5889C16.1946 18.6587 16.1067 18.7101 16.0105 18.7387L3.84591 22.3554C3.73631 22.388 3.61989 22.3898 3.50931 22.3608C3.39873 22.3318 3.29823 22.273 3.21875 22.1908C3.13926 22.1086 3.08384 22.0062 3.05851 21.8948C3.03317 21.7833 3.0389 21.667 3.07507 21.5585L7.02507 9.71061C7.05338 9.62554 7.09966 9.54756 7.16077 9.48196C7.22188 9.41635 7.29639 9.36467 7.37924 9.3304L12.9907 7.01998C13.1048 6.97287 13.2303 6.96059 13.3513 6.98469C13.4724 7.00878 13.5836 7.06819 13.6709 7.1554L18.2584 11.7439C18.3405 11.826 18.3981 11.9293 18.4248 12.0423C18.4515 12.1552 18.4461 12.2734 18.4094 12.3835Z"
        stroke="#CAD3F5" stroke-width="1.5625" stroke-linecap="round" stroke-linejoin="round" />
    <path
        d="M19.1673 3.81473L21.6298 6.27723C21.8149 6.45427 21.9627 6.66649 22.0646 6.90144C22.1665 7.13639 22.2205 7.38932 22.2233 7.64541C22.2262 7.90149 22.1778 8.15556 22.0811 8.3927C21.9844 8.62985 21.8413 8.84528 21.6602 9.02637C21.4791 9.20746 21.2637 9.35056 21.0266 9.44725C20.7894 9.54395 20.5353 9.5923 20.2793 9.58947C20.0232 9.58663 19.7702 9.53268 19.5353 9.43076C19.3003 9.32885 19.0881 9.18103 18.9111 8.99598L16.4475 6.53348C16.1001 6.1703 15.9086 5.6855 15.9142 5.18291C15.9197 4.68031 16.1219 4.19987 16.4773 3.84446C16.8327 3.48905 17.3131 3.28692 17.8157 3.28137C18.3183 3.27581 18.8041 3.46726 19.1673 3.81473Z"
        fill="#CAD3F5" stroke="#CAD3F5" stroke-width="1.5625" stroke-linecap="round"
        stroke-linejoin="round" />
    <path
        d="M12.2723 13.1215C12.1282 12.9723 11.9558 12.8533 11.7651 12.7714C11.5745 12.6895 11.3695 12.6464 11.162 12.6446C10.9545 12.6428 10.7488 12.6823 10.5568 12.7609C10.3647 12.8394 10.1903 12.9555 10.0436 13.1022C9.89688 13.2489 9.78085 13.4233 9.70229 13.6154C9.62373 13.8074 9.58419 14.0131 9.586 14.2206C9.5878 14.4281 9.6309 14.6331 9.71279 14.8237C9.79468 15.0144 9.91372 15.1868 10.0629 15.3309C10.3576 15.6155 10.7523 15.773 11.162 15.7695C11.5717 15.7659 11.9636 15.6016 12.2533 15.3119C12.543 15.0222 12.7073 14.6303 12.7109 14.2206C12.7144 13.8109 12.5569 13.4162 12.2723 13.1215Z"
        stroke="#CAD3F5" stroke-width="1.5625" stroke-linecap="round" stroke-linejoin="round" />
</svg>
    