<svg width="25" height="26" viewBox="0 0 25 26" fill="none" xmlns="http://www.w3.org/2000/svg">
    <path
        d="M8.33497 14.7717C7.092 15.361 6.04112 16.29 5.30376 17.4512C4.56639 18.6125 4.17263 19.9587 4.16797 21.3342C4.16797 21.471 4.19492 21.6065 4.2473 21.7329C4.29967 21.8593 4.37643 21.9741 4.47319 22.0709C4.56996 22.1676 4.68483 22.2443 4.81125 22.2966C4.93767 22.3489 5.07315 22.3758 5.20997 22.3757H19.793C20.0692 22.3757 20.3342 22.266 20.5296 22.0707C20.725 21.8754 20.8348 21.6105 20.835 21.3342C20.8363 19.9533 20.4453 18.6004 19.7076 17.433C18.9699 16.2657 17.9158 15.3318 16.668 14.7402"
        stroke="#344054" stroke-linecap="round" stroke-linejoin="round" />
    <path
        d="M12.5 16.125C15.952 16.125 18.75 13.327 18.75 9.875C18.75 6.423 15.952 3.625 12.5 3.625C9.048 3.625 6.25 6.423 6.25 9.875C6.25 13.327 9.048 16.125 12.5 16.125Z"
        stroke="#306CFE" stroke-linecap="round" stroke-linejoin="round" />
</svg>
    