<svg width="25" height="26" viewBox="0 0 25 26" fill="none" xmlns="http://www.w3.org/2000/svg">
    <path opacity="0.5"
        d="M2.08203 13.0007C2.08203 8.09023 2.08203 5.63503 3.60703 4.10898C5.13411 2.58398 7.58828 2.58398 12.4987 2.58398C17.4091 2.58398 19.8643 2.58398 21.3893 4.10898C22.9154 5.63607 22.9154 8.09023 22.9154 13.0007C22.9154 17.9111 22.9154 20.3663 21.3893 21.8913C19.8654 23.4173 17.4091 23.4173 12.4987 23.4173C7.58828 23.4173 5.13307 23.4173 3.60703 21.8913C2.08203 20.3673 2.08203 17.9111 2.08203 13.0007Z"
        fill="#CAD3F5" />
    <path
        d="M10.3654 7.01001C9.91745 7.01001 9.4987 7.01001 9.15703 7.06105C8.77057 7.11834 8.3737 7.2548 8.05599 7.60792C7.74974 7.94855 7.64141 8.3548 7.59453 8.7423C7.55078 9.1048 7.55078 9.5548 7.55078 10.0621V10.6558C7.55078 10.863 7.63309 11.0618 7.7796 11.2083C7.92612 11.3548 8.12483 11.4371 8.33203 11.4371C8.53923 11.4371 8.73795 11.3548 8.88446 11.2083C9.03097 11.0618 9.11328 10.863 9.11328 10.6558V10.1058C9.11328 9.54022 9.11432 9.18709 9.14557 8.9298C9.15288 8.85185 9.16896 8.77498 9.19349 8.70063C9.19716 8.68284 9.20542 8.66633 9.21745 8.65272C9.21745 8.65133 9.22231 8.64855 9.22995 8.64438C9.28082 8.62468 9.33405 8.61172 9.38828 8.60584C9.60078 8.57459 9.89974 8.57251 10.4154 8.57251H11.7174V17.4267H9.89453C9.68733 17.4267 9.48862 17.509 9.3421 17.6555C9.19559 17.802 9.11328 18.0007 9.11328 18.2079C9.11328 18.4151 9.19559 18.6138 9.3421 18.7604C9.48862 18.9069 9.68733 18.9892 9.89453 18.9892H15.6237C15.8309 18.9892 16.0296 18.9069 16.1761 18.7604C16.3226 18.6138 16.4049 18.4151 16.4049 18.2079C16.4049 18.0007 16.3226 17.802 16.1761 17.6555C16.0296 17.509 15.8309 17.4267 15.6237 17.4267H13.2799V8.57251H14.582C15.0977 8.57251 15.3966 8.57459 15.6091 8.60584C15.7049 8.62042 15.7497 8.63709 15.7674 8.64438L15.7789 8.65167C15.7912 8.66488 15.7998 8.68207 15.8039 8.69959C15.8185 8.73917 15.8372 8.80897 15.8518 8.9298C15.8831 9.18709 15.8841 9.54022 15.8841 10.1069V10.6558C15.8841 10.863 15.9664 11.0618 16.1129 11.2083C16.2594 11.3548 16.4582 11.4371 16.6654 11.4371C16.8726 11.4371 17.0713 11.3548 17.2178 11.2083C17.3643 11.0618 17.4466 10.863 17.4466 10.6558V10.0621C17.4466 9.55376 17.4466 9.1048 17.4029 8.7423C17.356 8.3548 17.2477 7.94855 16.9414 7.60688C16.6237 7.2548 16.2268 7.11834 15.8404 7.06105C15.4987 7.00897 15.0799 7.00897 14.632 7.01001H10.3654Z"
        fill="#CAD3F5" />
</svg>
    